<svg xmlns="http://www.w3.org/2000/svg" xmlns:xlink="http://www.w3.org/1999/xlink" contentStyleType="text/css" data-diagram-type="ACTIVITY" height="2189px" preserveAspectRatio="none" style="width:2047px;height:2189px;background:#FFFFFF;" version="1.1" viewBox="0 0 2047 2189" width="2047px" zoomAndPan="magnify"><?plantuml 1.2026.3beta6?><defs><filter height="300%" id="f1eoibtzmq2cez" width="300%" x="-1" y="-1"><feGaussianBlur result="blurOut" stdDeviation="2"/><feColorMatrix in="blurOut" result="blurOut2" type="matrix" values="0 0 0 0 0 0 0 0 0 0 0 0 0 0 0 0 0 0 .4 0"/><feOffset dx="4" dy="4" in="blurOut2" result="blurOut3"/><feBlend in="SourceGraphic" in2="blurOut3" mode="normal"/></filter></defs><g><rect fill="none" height="20.9531" style="stroke:none;stroke-width:1;" width="2000.6519" x="20" y="17.7451"/><rect fill="#FEFECE" filter="url(#f1eoibtzmq2cez)" height="33.9688" rx="12.5" ry="12.5" style="stroke:#A80036;stroke-width:1.5;" width="157.748" x="112.1182" y="726.7881"/><text fill="#000000" font-family="sans-serif" font-size="12" lengthAdjust="spacing" textLength="137.748" x="122.1182" y="747.9268">S'occupe du payement</text><polygon fill="#FEFECE" filter="url(#f1eoibtzmq2cez)" points="35,780.7568,346.9844,780.7568,356.9844,797.7412,346.9844,814.7256,35,814.7256" style="stroke:#A80036;stroke-width:1.5;"/><text fill="#000000" font-family="sans-serif" font-size="12" lengthAdjust="spacing" textLength="291.9844" x="45" y="801.8955">Envoie d'un signal de confirmation du payement</text><line style="stroke:#000000;stroke-width:2;" x1="20" x2="20" y1="17.7451" y2="2163.9756"/><ellipse cx="681.7432" cy="53.6982" fill="#000000" filter="url(#f1eoibtzmq2cez)" rx="10" ry="10" style="stroke:#000000;stroke-width:1;"/><line style="stroke:#A80036;stroke-width:1.5;" x1="657.7432" x2="849.9834" y1="83.6982" y2="83.6982"/><rect fill="#FEFECE" filter="url(#f1eoibtzmq2cez)" height="33.9688" rx="12.5" ry="12.5" style="stroke:#A80036;stroke-width:1.5;" width="308.4805" x="503.5029" y="103.6982"/><text fill="#000000" font-family="sans-serif" font-size="12" lengthAdjust="spacing" textLength="288.4805" x="513.5029" y="124.8369">Affichage du catalogue des produits disponibles</text><rect fill="#FEFECE" filter="url(#f1eoibtzmq2cez)" height="33.9688" style="stroke:#A80036;stroke-width:1.5;" width="163.1738" x="576.1563" y="157.667"/><text fill="#000000" font-family="sans-serif" font-size="12" lengthAdjust="spacing" textLength="139.3594" x="586.1563" y="178.8057">Catalogue des produits</text><rect fill="#FEFECE" filter="url(#f1eoibtzmq2cez)" height="33.9688" rx="12.5" ry="12.5" style="stroke:#A80036;stroke-width:1.5;" width="132.1133" x="591.6865" y="226.6357"/><text fill="#000000" font-family="sans-serif" font-size="12" lengthAdjust="spacing" textLength="112.1133" x="601.6865" y="247.7744">Cr&#233;ation du panier</text><rect fill="#FEFECE" filter="url(#f1eoibtzmq2cez)" height="33.9688" style="stroke:#A80036;stroke-width:1.5;" width="124.3906" x="595.5479" y="280.6045"/><text fill="#000000" font-family="sans-serif" font-size="12" lengthAdjust="spacing" textLength="104.3906" x="605.5479" y="301.7432">Panier [Nouveau]</text><ellipse cx="849.9834" cy="209.1357" fill="#FEFECE" filter="url(#f1eoibtzmq2cez)" rx="10" ry="10" style="stroke:#A80036;stroke-width:1;"/><path d="M850.0928,205.3076 L848.4834,209.6514 L851.7021,209.6514 L850.0928,205.3076 Z M849.4209,204.1357 L850.7646,204.1357 L854.0928,212.8857 L852.8584,212.8857 L852.0615,210.6357 L848.124,210.6357 L847.3271,212.8857 L846.0771,212.8857 L849.4209,204.1357 Z " fill="#000000"/><line style="stroke:#A80036;stroke-width:1.5;" x1="657.7432" x2="849.9834" y1="334.5732" y2="334.5732"/><rect fill="#FEFECE" filter="url(#f1eoibtzmq2cez)" height="33.9688" style="stroke:#A80036;stroke-width:1.5;" width="114.6113" x="624.4375" y="408.542"/><text fill="#000000" font-family="sans-serif" font-size="12" lengthAdjust="spacing" textLength="94.6113" x="634.4375" y="429.6807">Panier [Modifi&#233;]</text><rect fill="#FEFECE" filter="url(#f1eoibtzmq2cez)" height="33.9688" style="stroke:#A80036;stroke-width:1.5;" width="125.2871" x="619.0996" y="618.8506"/><text fill="#000000" font-family="sans-serif" font-size="12" lengthAdjust="spacing" textLength="101.4727" x="629.0996" y="639.9893">Panier [Complet]</text><rect fill="#000000" filter="url(#f1eoibtzmq2cez)" height="6" rx="2.5" ry="2.5" style="stroke:#000000;stroke-width:1;" width="493.999" x="377.9844" y="834.7256"/><polygon fill="#FEFECE" filter="url(#f1eoibtzmq2cez)" points="425.3955,860.7256,672.7432,860.7256,662.7432,877.71,672.7432,894.6943,425.3955,894.6943" style="stroke:#A80036;stroke-width:1.5;"/><text fill="#000000" font-family="sans-serif" font-size="12" lengthAdjust="spacing" textLength="217.3477" x="435.3955" y="881.8643">R&#233;ception du signal de confirmation</text><rect fill="#FEFECE" filter="url(#f1eoibtzmq2cez)" height="33.9688" rx="12.5" ry="12.5" style="stroke:#A80036;stroke-width:1.5;" width="154.9766" x="466.5811" y="914.6943"/><text fill="#000000" font-family="sans-serif" font-size="12" lengthAdjust="spacing" textLength="134.9766" x="476.5811" y="935.833">Cr&#233;ation d'une facture</text><rect fill="#FEFECE" filter="url(#f1eoibtzmq2cez)" height="47.9375" style="stroke:#A80036;stroke-width:1.5;" width="82.7305" x="502.7041" y="968.6631"/><text fill="#000000" font-family="sans-serif" font-size="12" lengthAdjust="spacing" textLength="45.4805" x="516.5186" y="989.8018">Facture</text><text fill="#000000" font-family="sans-serif" font-size="12" lengthAdjust="spacing" textLength="62.7305" x="512.7041" y="1003.7705">[Nouveau]</text><rect fill="#FEFECE" filter="url(#f1eoibtzmq2cez)" height="33.9688" rx="12.5" ry="12.5" style="stroke:#A80036;stroke-width:1.5;" width="308.1699" x="389.9844" y="1036.6006"/><text fill="#000000" font-family="sans-serif" font-size="12" lengthAdjust="spacing" textLength="288.1699" x="399.9844" y="1057.7393">Transformation du panier en bon de commande</text><rect fill="#FEFECE" filter="url(#f1eoibtzmq2cez)" height="33.9688" style="stroke:#A80036;stroke-width:1.5;" width="199.6309" x="444.2539" y="1090.5693"/><text fill="#000000" font-family="sans-serif" font-size="12" lengthAdjust="spacing" textLength="179.6309" x="454.2539" y="1111.708">Bon de commande [Nouveau]</text><rect fill="#000000" filter="url(#f1eoibtzmq2cez)" height="6" rx="2.5" ry="2.5" style="stroke:#000000;stroke-width:1;" width="493.999" x="377.9844" y="1144.5381"/><polygon fill="#FEFECE" filter="url(#f1eoibtzmq2cez)" points="670.4202,1181.861,693.0661,1181.861,670.4202,1204.5068,693.0661,1204.5068" style="stroke:#A80036;stroke-width:1.5;"/><text fill="#000000" font-family="sans-serif" font-size="12" lengthAdjust="spacing" textLength="247.6758" x="557.9053" y="1191.6768">1 jour ouvrable avant la date de livraison</text><polygon fill="#FEFECE" filter="url(#f1eoibtzmq2cez)" points="587.5996,1224.5068,775.8867,1224.5068,785.8867,1241.4912,775.8867,1258.4756,587.5996,1258.4756" style="stroke:#A80036;stroke-width:1.5;"/><text fill="#000000" font-family="sans-serif" font-size="12" lengthAdjust="spacing" textLength="168.2871" x="597.5996" y="1245.6455">Envoi du bon de commande</text><rect fill="#FEFECE" filter="url(#f1eoibtzmq2cez)" height="33.9688" style="stroke:#A80036;stroke-width:1.5;" width="200.4863" x="581.5" y="1440.3818"/><text fill="#000000" font-family="sans-serif" font-size="12" lengthAdjust="spacing" textLength="180.4863" x="591.5" y="1461.5205">Bon de commande [Pr&#233;par&#233;e]</text><rect fill="#FEFECE" filter="url(#f1eoibtzmq2cez)" height="33.9688" rx="12.5" ry="12.5" style="stroke:#A80036;stroke-width:1.5;" width="347.5859" x="507.9502" y="1494.3506"/><text fill="#000000" font-family="sans-serif" font-size="12" lengthAdjust="spacing" textLength="327.5859" x="517.9502" y="1515.4893">Diminution du stock par rapport au bon de commande</text><rect fill="#FEFECE" filter="url(#f1eoibtzmq2cez)" height="33.9688" style="stroke:#A80036;stroke-width:1.5;" width="122.832" x="620.3271" y="1548.3193"/><text fill="#000000" font-family="sans-serif" font-size="12" lengthAdjust="spacing" textLength="102.832" x="630.3271" y="1569.458">Stock [Diminu&#233;s]</text><rect fill="#FEFECE" filter="url(#f1eoibtzmq2cez)" height="33.9688" rx="12.5" ry="12.5" style="stroke:#A80036;stroke-width:1.5;" width="200.5742" x="581.4561" y="1602.2881"/><text fill="#000000" font-family="sans-serif" font-size="12" lengthAdjust="spacing" textLength="180.5742" x="591.4561" y="1623.4268">Cr&#233;ation d'un bon de livraison</text><rect fill="#FEFECE" filter="url(#f1eoibtzmq2cez)" height="33.9688" style="stroke:#A80036;stroke-width:1.5;" width="182.9434" x="590.2715" y="1656.2568"/><text fill="#000000" font-family="sans-serif" font-size="12" lengthAdjust="spacing" textLength="162.9434" x="600.2715" y="1677.3955">Bon de livraison [Nouveau]</text><rect fill="#FEFECE" filter="url(#f1eoibtzmq2cez)" height="33.9688" style="stroke:#A80036;stroke-width:1.5;" width="163.1328" x="600.1768" y="2088.0068"/><text fill="#000000" font-family="sans-serif" font-size="12" lengthAdjust="spacing" textLength="143.1328" x="610.1768" y="2109.1455">Bon de livraison [Sign&#233;]</text><line style="stroke:#000000;stroke-width:2;" x1="371.9844" x2="371.9844" y1="17.7451" y2="2163.9756"/><rect fill="#FEFECE" filter="url(#f1eoibtzmq2cez)" height="33.9688" rx="12.5" ry="12.5" style="stroke:#A80036;stroke-width:1.5;" width="111.2188" x="953.3564" y="354.5732"/><text fill="#000000" font-family="sans-serif" font-size="12" lengthAdjust="spacing" textLength="91.2188" x="963.3564" y="375.7119">Ajouter articles</text><rect fill="#FEFECE" filter="url(#f1eoibtzmq2cez)" height="33.9688" rx="12.5" ry="12.5" style="stroke:#A80036;stroke-width:1.5;" width="241.9648" x="887.9834" y="510.9131"/><text fill="#000000" font-family="sans-serif" font-size="12" lengthAdjust="spacing" textLength="221.9648" x="897.9834" y="532.0518">Masquage du catalogue des produits</text><rect fill="#FEFECE" filter="url(#f1eoibtzmq2cez)" height="33.9688" rx="12.5" ry="12.5" style="stroke:#A80036;stroke-width:1.5;" width="158.9258" x="929.5029" y="564.8818"/><text fill="#000000" font-family="sans-serif" font-size="12" lengthAdjust="spacing" textLength="138.9258" x="939.5029" y="586.0205">Confirmation du panier</text><rect fill="#FEFECE" filter="url(#f1eoibtzmq2cez)" height="33.9688" rx="12.5" ry="12.5" style="stroke:#A80036;stroke-width:1.5;" width="184.8652" x="916.5332" y="672.8193"/><text fill="#000000" font-family="sans-serif" font-size="12" lengthAdjust="spacing" textLength="164.8652" x="926.5332" y="693.958">Payement de la commande</text><polygon fill="#FEFECE" filter="url(#f1eoibtzmq2cez)" points="1053.377,975.6475,1300.7246,975.6475,1290.7246,992.6318,1300.7246,1009.6162,1053.377,1009.6162" style="stroke:#A80036;stroke-width:1.5;"/><text fill="#000000" font-family="sans-serif" font-size="12" lengthAdjust="spacing" textLength="217.3477" x="1063.377" y="996.7861">R&#233;ception du signal de confirmation</text><rect fill="#FEFECE" filter="url(#f1eoibtzmq2cez)" height="33.9688" rx="12.5" ry="12.5" style="stroke:#A80036;stroke-width:1.5;" width="131.5801" x="943.1758" y="1926.1006"/><text fill="#000000" font-family="sans-serif" font-size="12" lengthAdjust="spacing" textLength="111.5801" x="953.1758" y="1947.2393">Re&#231;oit ses courses</text><rect fill="#FEFECE" filter="url(#f1eoibtzmq2cez)" height="33.9688" rx="12.5" ry="12.5" style="stroke:#A80036;stroke-width:1.5;" width="167.6855" x="925.123" y="1980.0693"/><text fill="#000000" font-family="sans-serif" font-size="12" lengthAdjust="spacing" textLength="147.6855" x="935.123" y="2001.208">Signe le bon de livraison</text><polygon fill="#FEFECE" filter="url(#f1eoibtzmq2cez)" points="956.4688,462.5107,1061.4629,462.5107,1073.4629,474.5107,1061.4629,486.5107,956.4688,486.5107,944.4688,474.5107,956.4688,462.5107" style="stroke:#A80036;stroke-width:1.5;"/><text fill="#000000" font-family="sans-serif" font-size="11" lengthAdjust="spacing" textLength="18.686" x="1012.9658" y="496.7212">Oui</text><text fill="#000000" font-family="sans-serif" font-size="11" lengthAdjust="spacing" textLength="104.9941" x="956.4688" y="478.3188">Le client a-t-il fini ?</text><text fill="#000000" font-family="sans-serif" font-size="11" lengthAdjust="spacing" textLength="21.9302" x="1073.4629" y="471.9165">Non</text><ellipse cx="1115.3931" cy="474.5107" fill="#FEFECE" filter="url(#f1eoibtzmq2cez)" rx="10" ry="10" style="stroke:#A80036;stroke-width:1;"/><path d="M1115.5024,470.6826 L1113.8931,475.0264 L1117.1118,475.0264 L1115.5024,470.6826 Z M1114.8306,469.5107 L1116.1743,469.5107 L1119.5024,478.2607 L1118.2681,478.2607 L1117.4712,476.0107 L1113.5337,476.0107 L1112.7368,478.2607 L1111.4868,478.2607 L1114.8306,469.5107 Z " fill="#000000"/><ellipse cx="1008.9658" cy="2152.9756" fill="none" filter="url(#f1eoibtzmq2cez)" rx="11" ry="11" style="stroke:#000000;stroke-width:1;"/><ellipse cx="1008.9658" cy="2152.9756" fill="#000000" rx="6" ry="6" style="stroke:#000000;stroke-width:1;"/><line style="stroke:#000000;stroke-width:2;" x1="881.9834" x2="881.9834" y1="17.7451" y2="2163.9756"/><polygon fill="#FEFECE" filter="url(#f1eoibtzmq2cez)" points="1343.8877,1278.4756,1539.1338,1278.4756,1529.1338,1295.46,1539.1338,1312.4443,1343.8877,1312.4443" style="stroke:#A80036;stroke-width:1.5;"/><text fill="#000000" font-family="sans-serif" font-size="12" lengthAdjust="spacing" textLength="165.2461" x="1353.8877" y="1299.6143">Re&#231;u du bon de commande</text><rect fill="#FEFECE" filter="url(#f1eoibtzmq2cez)" height="33.9688" rx="12.5" ry="12.5" style="stroke:#A80036;stroke-width:1.5;" width="194.2051" x="1339.4082" y="1332.4443"/><text fill="#000000" font-family="sans-serif" font-size="12" lengthAdjust="spacing" textLength="174.2051" x="1349.4082" y="1353.583">Pr&#233;paration de la commande</text><rect fill="#FEFECE" filter="url(#f1eoibtzmq2cez)" height="33.9688" rx="12.5" ry="12.5" style="stroke:#A80036;stroke-width:1.5;" width="229.5723" x="1321.7246" y="1386.4131"/><text fill="#000000" font-family="sans-serif" font-size="12" lengthAdjust="spacing" textLength="209.5723" x="1331.7246" y="1407.5518">Enregister le bon comme pr&#233;par&#233;e</text><rect fill="#FEFECE" filter="url(#f1eoibtzmq2cez)" height="33.9688" rx="12.5" ry="12.5" style="stroke:#A80036;stroke-width:1.5;" width="204.459" x="1334.2813" y="1710.2256"/><text fill="#000000" font-family="sans-serif" font-size="12" lengthAdjust="spacing" textLength="184.459" x="1344.2813" y="1731.3643">Pr&#233;venir le service de livraison</text><polygon fill="#FEFECE" filter="url(#f1eoibtzmq2cez)" points="1355.7178,1764.1943,1517.3037,1764.1943,1527.3037,1781.1787,1517.3037,1798.1631,1355.7178,1798.1631" style="stroke:#A80036;stroke-width:1.5;"/><text fill="#000000" font-family="sans-serif" font-size="12" lengthAdjust="spacing" textLength="141.5859" x="1365.7178" y="1785.333">Envoi d'une notification</text><line style="stroke:#000000;stroke-width:2;" x1="1315.7246" x2="1315.7246" y1="17.7451" y2="2163.9756"/><polygon fill="#FEFECE" filter="url(#f1eoibtzmq2cez)" points="1695.585,1818.1631,1890.5029,1818.1631,1880.5029,1835.1475,1890.5029,1852.1318,1695.585,1852.1318" style="stroke:#A80036;stroke-width:1.5;"/><text fill="#000000" font-family="sans-serif" font-size="12" lengthAdjust="spacing" textLength="164.918" x="1705.585" y="1839.3018">R&#233;ception de la notification</text><rect fill="#FEFECE" filter="url(#f1eoibtzmq2cez)" height="33.9688" rx="12.5" ry="12.5" style="stroke:#A80036;stroke-width:1.5;" width="161.7793" x="1707.1543" y="1872.1318"/><text fill="#000000" font-family="sans-serif" font-size="12" lengthAdjust="spacing" textLength="141.7793" x="1717.1543" y="1893.2705">S'occupe de la livraison</text><rect fill="#FEFECE" filter="url(#f1eoibtzmq2cez)" height="33.9688" rx="12.5" ry="12.5" style="stroke:#A80036;stroke-width:1.5;" width="441.4941" x="1567.2969" y="2034.0381"/><text fill="#000000" font-family="sans-serif" font-size="12" lengthAdjust="spacing" textLength="421.4941" x="1577.2969" y="2055.1768">Notifie le syst&#232;me du magasin que le client a sign&#233; le bon de livraison</text><line style="stroke:#000000;stroke-width:2;" x1="1561.2969" x2="1561.2969" y1="17.7451" y2="2163.9756"/><line style="stroke:#000000;stroke-width:2;" x1="2018.791" x2="2018.791" y1="17.7451" y2="2163.9756"/><line style="stroke:#A80036;stroke-width:1.5;" x1="190.9922" x2="190.9922" y1="760.7568" y2="780.7568"/><polygon fill="#A80036" points="186.9922,770.7568,190.9922,780.7568,194.9922,770.7568,190.9922,774.7568" style="stroke:#A80036;stroke-width:1;"/><line style="stroke:#A80036;stroke-width:1.5;" x1="657.7432" x2="657.7432" y1="137.667" y2="157.667"/><polygon fill="#A80036" points="653.7432,147.667,657.7432,157.667,661.7432,147.667,657.7432,151.667" style="stroke:#A80036;stroke-width:1;"/><line style="stroke:#A80036;stroke-width:1.5;" x1="657.7432" x2="657.7432" y1="191.6357" y2="226.6357"/><polygon fill="#A80036" points="653.7432,216.6357,657.7432,226.6357,661.7432,216.6357,657.7432,220.6357" style="stroke:#A80036;stroke-width:1;"/><line style="stroke:#A80036;stroke-width:1.5;" x1="657.7432" x2="657.7432" y1="260.6045" y2="280.6045"/><polygon fill="#A80036" points="653.7432,270.6045,657.7432,280.6045,661.7432,270.6045,657.7432,274.6045" style="stroke:#A80036;stroke-width:1;"/><line style="stroke:#A80036;stroke-width:1.5;" x1="657.7432" x2="657.7432" y1="85.1982" y2="103.6982"/><polygon fill="#A80036" points="653.7432,93.6982,657.7432,103.6982,661.7432,93.6982,657.7432,97.6982" style="stroke:#A80036;stroke-width:1;"/><line style="stroke:#A80036;stroke-width:1.5;" x1="657.7432" x2="657.7432" y1="314.5732" y2="334.5732"/><polygon fill="#A80036" points="653.7432,324.5732,657.7432,334.5732,661.7432,324.5732,657.7432,328.5732" style="stroke:#A80036;stroke-width:1;"/><line style="stroke:#A80036;stroke-width:1.5;" x1="849.9834" x2="849.9834" y1="219.1357" y2="334.5732"/><polygon fill="#A80036" points="845.9834,324.5732,849.9834,334.5732,853.9834,324.5732,849.9834,328.5732" style="stroke:#A80036;stroke-width:1;"/><line style="stroke:#A80036;stroke-width:1.5;" x1="681.7432" x2="681.7432" y1="63.6982" y2="83.6982"/><polygon fill="#A80036" points="677.7432,73.6982,681.7432,83.6982,685.7432,73.6982,681.7432,77.6982" style="stroke:#A80036;stroke-width:1;"/><line style="stroke:#A80036;stroke-width:1.5;" x1="544.0693" x2="544.0693" y1="894.6943" y2="914.6943"/><polygon fill="#A80036" points="540.0693,904.6943,544.0693,914.6943,548.0693,904.6943,544.0693,908.6943" style="stroke:#A80036;stroke-width:1;"/><line style="stroke:#A80036;stroke-width:1.5;" x1="544.0693" x2="544.0693" y1="948.6631" y2="968.6631"/><polygon fill="#A80036" points="540.0693,958.6631,544.0693,968.6631,548.0693,958.6631,544.0693,962.6631" style="stroke:#A80036;stroke-width:1;"/><line style="stroke:#A80036;stroke-width:1.5;" x1="544.0693" x2="544.0693" y1="1016.6006" y2="1036.6006"/><polygon fill="#A80036" points="540.0693,1026.6006,544.0693,1036.6006,548.0693,1026.6006,544.0693,1030.6006" style="stroke:#A80036;stroke-width:1;"/><line style="stroke:#A80036;stroke-width:1.5;" x1="544.0693" x2="544.0693" y1="1070.5693" y2="1090.5693"/><polygon fill="#A80036" points="540.0693,1080.5693,544.0693,1090.5693,548.0693,1080.5693,544.0693,1084.5693" style="stroke:#A80036;stroke-width:1;"/><line style="stroke:#A80036;stroke-width:1.5;" x1="544.0693" x2="544.0693" y1="840.7256" y2="860.7256"/><polygon fill="#A80036" points="540.0693,850.7256,544.0693,860.7256,548.0693,850.7256,544.0693,854.7256" style="stroke:#A80036;stroke-width:1;"/><line style="stroke:#A80036;stroke-width:1.5;" x1="544.0693" x2="544.0693" y1="1124.5381" y2="1144.5381"/><polygon fill="#A80036" points="540.0693,1134.5381,544.0693,1144.5381,548.0693,1134.5381,544.0693,1138.5381" style="stroke:#A80036;stroke-width:1;"/><line style="stroke:#A80036;stroke-width:1.5;" x1="681.7432" x2="681.7432" y1="1150.5381" y2="1170.5381"/><polygon fill="#A80036" points="677.7432,1160.5381,681.7432,1170.5381,685.7432,1160.5381,681.7432,1164.5381" style="stroke:#A80036;stroke-width:1;"/><line style="stroke:#A80036;stroke-width:1.5;" x1="681.7432" x2="681.7432" y1="1204.5068" y2="1224.5068"/><polygon fill="#A80036" points="677.7432,1214.5068,681.7432,1224.5068,685.7432,1214.5068,681.7432,1218.5068" style="stroke:#A80036;stroke-width:1;"/><line style="stroke:#A80036;stroke-width:1.5;" x1="681.7432" x2="681.7432" y1="1474.3506" y2="1494.3506"/><polygon fill="#A80036" points="677.7432,1484.3506,681.7432,1494.3506,685.7432,1484.3506,681.7432,1488.3506" style="stroke:#A80036;stroke-width:1;"/><line style="stroke:#A80036;stroke-width:1.5;" x1="681.7432" x2="681.7432" y1="1528.3193" y2="1548.3193"/><polygon fill="#A80036" points="677.7432,1538.3193,681.7432,1548.3193,685.7432,1538.3193,681.7432,1542.3193" style="stroke:#A80036;stroke-width:1;"/><line style="stroke:#A80036;stroke-width:1.5;" x1="681.7432" x2="681.7432" y1="1582.2881" y2="1602.2881"/><polygon fill="#A80036" points="677.7432,1592.2881,681.7432,1602.2881,685.7432,1592.2881,681.7432,1596.2881" style="stroke:#A80036;stroke-width:1;"/><line style="stroke:#A80036;stroke-width:1.5;" x1="681.7432" x2="681.7432" y1="1636.2568" y2="1656.2568"/><polygon fill="#A80036" points="677.7432,1646.2568,681.7432,1656.2568,685.7432,1646.2568,681.7432,1650.2568" style="stroke:#A80036;stroke-width:1;"/><line style="stroke:#A80036;stroke-width:1.5;" x1="681.7432" x2="681.7432" y1="2121.9756" y2="2126.9756"/><line style="stroke:#A80036;stroke-width:1.5;" x1="681.7432" x2="1008.9658" y1="2126.9756" y2="2126.9756"/><line style="stroke:#A80036;stroke-width:1.5;" x1="1008.9658" x2="1008.9658" y1="2126.9756" y2="2141.9756"/><polygon fill="#A80036" points="1004.9658,2131.9756,1008.9658,2141.9756,1012.9658,2131.9756,1008.9658,2135.9756" style="stroke:#A80036;stroke-width:1;"/><line style="stroke:#A80036;stroke-width:1.5;" x1="1008.9658" x2="1008.9658" y1="544.8818" y2="564.8818"/><polygon fill="#A80036" points="1004.9658,554.8818,1008.9658,564.8818,1012.9658,554.8818,1008.9658,558.8818" style="stroke:#A80036;stroke-width:1;"/><line style="stroke:#A80036;stroke-width:1.5;" x1="1008.9658" x2="1008.9658" y1="1960.0693" y2="1980.0693"/><polygon fill="#A80036" points="1004.9658,1970.0693,1008.9658,1980.0693,1012.9658,1970.0693,1008.9658,1974.0693" style="stroke:#A80036;stroke-width:1;"/><line style="stroke:#A80036;stroke-width:1.5;" x1="1008.9658" x2="1008.9658" y1="486.5107" y2="510.9131"/><polygon fill="#A80036" points="1004.9658,500.9131,1008.9658,510.9131,1012.9658,500.9131,1008.9658,504.9131" style="stroke:#A80036;stroke-width:1;"/><line style="stroke:#A80036;stroke-width:1.5;" x1="1073.4629" x2="1105.3931" y1="474.5107" y2="474.5107"/><polygon fill="#A80036" points="1095.3931,470.5107,1105.3931,474.5107,1095.3931,478.5107,1099.3931,474.5107" style="stroke:#A80036;stroke-width:1;"/><line style="stroke:#A80036;stroke-width:1.5;" x1="1436.5107" x2="1436.5107" y1="1312.4443" y2="1332.4443"/><polygon fill="#A80036" points="1432.5107,1322.4443,1436.5107,1332.4443,1440.5107,1322.4443,1436.5107,1326.4443" style="stroke:#A80036;stroke-width:1;"/><line style="stroke:#A80036;stroke-width:1.5;" x1="1436.5107" x2="1436.5107" y1="1366.4131" y2="1386.4131"/><polygon fill="#A80036" points="1432.5107,1376.4131,1436.5107,1386.4131,1440.5107,1376.4131,1436.5107,1380.4131" style="stroke:#A80036;stroke-width:1;"/><line style="stroke:#A80036;stroke-width:1.5;" x1="1436.5107" x2="1436.5107" y1="1744.1943" y2="1764.1943"/><polygon fill="#A80036" points="1432.5107,1754.1943,1436.5107,1764.1943,1440.5107,1754.1943,1436.5107,1758.1943" style="stroke:#A80036;stroke-width:1;"/><line style="stroke:#A80036;stroke-width:1.5;" x1="1788.0439" x2="1788.0439" y1="1852.1318" y2="1872.1318"/><polygon fill="#A80036" points="1784.0439,1862.1318,1788.0439,1872.1318,1792.0439,1862.1318,1788.0439,1866.1318" style="stroke:#A80036;stroke-width:1;"/><line style="stroke:#A80036;stroke-width:1.5;" x1="681.7432" x2="681.7432" y1="336.0732" y2="339.5732"/><line style="stroke:#A80036;stroke-width:1.5;" x1="681.7432" x2="1008.9658" y1="339.5732" y2="339.5732"/><line style="stroke:#A80036;stroke-width:1.5;" x1="1008.9658" x2="1008.9658" y1="339.5732" y2="354.5732"/><polygon fill="#A80036" points="1004.9658,344.5732,1008.9658,354.5732,1012.9658,344.5732,1008.9658,348.5732" style="stroke:#A80036;stroke-width:1;"/><line style="stroke:#A80036;stroke-width:1.5;" x1="1008.9658" x2="1008.9658" y1="388.542" y2="393.542"/><line style="stroke:#A80036;stroke-width:1.5;" x1="1008.9658" x2="681.7432" y1="393.542" y2="393.542"/><line style="stroke:#A80036;stroke-width:1.5;" x1="681.7432" x2="681.7432" y1="393.542" y2="408.542"/><polygon fill="#A80036" points="677.7432,398.542,681.7432,408.542,685.7432,398.542,681.7432,402.542" style="stroke:#A80036;stroke-width:1;"/><line style="stroke:#A80036;stroke-width:1.5;" x1="1008.9658" x2="1008.9658" y1="598.8506" y2="603.8506"/><line style="stroke:#A80036;stroke-width:1.5;" x1="1008.9658" x2="681.7432" y1="603.8506" y2="603.8506"/><line style="stroke:#A80036;stroke-width:1.5;" x1="681.7432" x2="681.7432" y1="603.8506" y2="618.8506"/><polygon fill="#A80036" points="677.7432,608.8506,681.7432,618.8506,685.7432,608.8506,681.7432,612.8506" style="stroke:#A80036;stroke-width:1;"/><line style="stroke:#A80036;stroke-width:1.5;" x1="681.7432" x2="681.7432" y1="652.8193" y2="657.8193"/><line style="stroke:#A80036;stroke-width:1.5;" x1="681.7432" x2="1008.9658" y1="657.8193" y2="657.8193"/><line style="stroke:#A80036;stroke-width:1.5;" x1="1008.9658" x2="1008.9658" y1="657.8193" y2="672.8193"/><polygon fill="#A80036" points="1004.9658,662.8193,1008.9658,672.8193,1012.9658,662.8193,1008.9658,666.8193" style="stroke:#A80036;stroke-width:1;"/><line style="stroke:#A80036;stroke-width:1.5;" x1="1008.9658" x2="1008.9658" y1="706.7881" y2="711.7881"/><line style="stroke:#A80036;stroke-width:1.5;" x1="1008.9658" x2="190.9922" y1="711.7881" y2="711.7881"/><line style="stroke:#A80036;stroke-width:1.5;" x1="190.9922" x2="190.9922" y1="711.7881" y2="726.7881"/><polygon fill="#A80036" points="186.9922,716.7881,190.9922,726.7881,194.9922,716.7881,190.9922,720.7881" style="stroke:#A80036;stroke-width:1;"/><line style="stroke:#A80036;stroke-width:1.5;" x1="844.8281" x2="844.8281" y1="840.7256" y2="844.7256"/><line style="stroke:#A80036;stroke-width:1.5;" x1="844.8281" x2="1172.0508" y1="844.7256" y2="844.7256"/><line style="stroke:#A80036;stroke-width:1.5;" x1="1172.0508" x2="1172.0508" y1="844.7256" y2="975.6475"/><polygon fill="#A80036" points="1168.0508,965.6475,1172.0508,975.6475,1176.0508,965.6475,1172.0508,969.6475" style="stroke:#A80036;stroke-width:1;"/><line style="stroke:#A80036;stroke-width:1.5;" x1="1172.0508" x2="1172.0508" y1="1009.6162" y2="1130.5381"/><line style="stroke:#A80036;stroke-width:1.5;" x1="1172.0508" x2="844.8281" y1="1130.5381" y2="1130.5381"/><line style="stroke:#A80036;stroke-width:1.5;" x1="844.8281" x2="844.8281" y1="1130.5381" y2="1144.5381"/><polygon fill="#A80036" points="840.8281,1134.5381,844.8281,1144.5381,848.8281,1134.5381,844.8281,1138.5381" style="stroke:#A80036;stroke-width:1;"/><line style="stroke:#A80036;stroke-width:1.5;" x1="190.9922" x2="190.9922" y1="814.7256" y2="819.7256"/><line style="stroke:#A80036;stroke-width:1.5;" x1="190.9922" x2="681.7432" y1="819.7256" y2="819.7256"/><line style="stroke:#A80036;stroke-width:1.5;" x1="681.7432" x2="681.7432" y1="819.7256" y2="834.7256"/><polygon fill="#A80036" points="677.7432,824.7256,681.7432,834.7256,685.7432,824.7256,681.7432,828.7256" style="stroke:#A80036;stroke-width:1;"/><line style="stroke:#A80036;stroke-width:1.5;" x1="681.7432" x2="681.7432" y1="1258.4756" y2="1263.4756"/><line style="stroke:#A80036;stroke-width:1.5;" x1="681.7432" x2="1436.5107" y1="1263.4756" y2="1263.4756"/><line style="stroke:#A80036;stroke-width:1.5;" x1="1436.5107" x2="1436.5107" y1="1263.4756" y2="1278.4756"/><polygon fill="#A80036" points="1432.5107,1268.4756,1436.5107,1278.4756,1440.5107,1268.4756,1436.5107,1272.4756" style="stroke:#A80036;stroke-width:1;"/><line style="stroke:#A80036;stroke-width:1.5;" x1="1436.5107" x2="1436.5107" y1="1420.3818" y2="1425.3818"/><line style="stroke:#A80036;stroke-width:1.5;" x1="1436.5107" x2="681.7432" y1="1425.3818" y2="1425.3818"/><line style="stroke:#A80036;stroke-width:1.5;" x1="681.7432" x2="681.7432" y1="1425.3818" y2="1440.3818"/><polygon fill="#A80036" points="677.7432,1430.3818,681.7432,1440.3818,685.7432,1430.3818,681.7432,1434.3818" style="stroke:#A80036;stroke-width:1;"/><line style="stroke:#A80036;stroke-width:1.5;" x1="681.7432" x2="681.7432" y1="1690.2256" y2="1695.2256"/><line style="stroke:#A80036;stroke-width:1.5;" x1="681.7432" x2="1436.5107" y1="1695.2256" y2="1695.2256"/><line style="stroke:#A80036;stroke-width:1.5;" x1="1436.5107" x2="1436.5107" y1="1695.2256" y2="1710.2256"/><polygon fill="#A80036" points="1432.5107,1700.2256,1436.5107,1710.2256,1440.5107,1700.2256,1436.5107,1704.2256" style="stroke:#A80036;stroke-width:1;"/><line style="stroke:#A80036;stroke-width:1.5;" x1="1436.5107" x2="1436.5107" y1="1798.1631" y2="1803.1631"/><line style="stroke:#A80036;stroke-width:1.5;" x1="1436.5107" x2="1788.0439" y1="1803.1631" y2="1803.1631"/><line style="stroke:#A80036;stroke-width:1.5;" x1="1788.0439" x2="1788.0439" y1="1803.1631" y2="1818.1631"/><polygon fill="#A80036" points="1784.0439,1808.1631,1788.0439,1818.1631,1792.0439,1808.1631,1788.0439,1812.1631" style="stroke:#A80036;stroke-width:1;"/><line style="stroke:#A80036;stroke-width:1.5;" x1="1788.0439" x2="1788.0439" y1="1906.1006" y2="1911.1006"/><line style="stroke:#A80036;stroke-width:1.5;" x1="1788.0439" x2="1008.9658" y1="1911.1006" y2="1911.1006"/><line style="stroke:#A80036;stroke-width:1.5;" x1="1008.9658" x2="1008.9658" y1="1911.1006" y2="1926.1006"/><polygon fill="#A80036" points="1004.9658,1916.1006,1008.9658,1926.1006,1012.9658,1916.1006,1008.9658,1920.1006" style="stroke:#A80036;stroke-width:1;"/><line style="stroke:#A80036;stroke-width:1.5;" x1="1008.9658" x2="1008.9658" y1="2014.0381" y2="2019.0381"/><line style="stroke:#A80036;stroke-width:1.5;" x1="1008.9658" x2="1788.0439" y1="2019.0381" y2="2019.0381"/><line style="stroke:#A80036;stroke-width:1.5;" x1="1788.0439" x2="1788.0439" y1="2019.0381" y2="2034.0381"/><polygon fill="#A80036" points="1784.0439,2024.0381,1788.0439,2034.0381,1792.0439,2024.0381,1788.0439,2028.0381" style="stroke:#A80036;stroke-width:1;"/><line style="stroke:#A80036;stroke-width:1.5;" x1="1788.0439" x2="1788.0439" y1="2068.0068" y2="2073.0068"/><line style="stroke:#A80036;stroke-width:1.5;" x1="1788.0439" x2="681.7432" y1="2073.0068" y2="2073.0068"/><line style="stroke:#A80036;stroke-width:1.5;" x1="681.7432" x2="681.7432" y1="2073.0068" y2="2088.0068"/><polygon fill="#A80036" points="677.7432,2078.0068,681.7432,2088.0068,685.7432,2078.0068,681.7432,2082.0068" style="stroke:#A80036;stroke-width:1;"/><line style="stroke:#A80036;stroke-width:1.5;" x1="681.7432" x2="681.7432" y1="442.5107" y2="447.5107"/><line style="stroke:#A80036;stroke-width:1.5;" x1="681.7432" x2="1008.9658" y1="447.5107" y2="447.5107"/><line style="stroke:#A80036;stroke-width:1.5;" x1="1008.9658" x2="1008.9658" y1="447.5107" y2="462.5107"/><polygon fill="#A80036" points="1004.9658,452.5107,1008.9658,462.5107,1012.9658,452.5107,1008.9658,456.5107" style="stroke:#A80036;stroke-width:1;"/><text fill="#000000" font-family="sans-serif" font-size="18" lengthAdjust="spacing" textLength="179.7803" x="106.1021" y="34.4531">Banque du magasin</text><text fill="#000000" font-family="sans-serif" font-size="18" lengthAdjust="spacing" textLength="78.1963" x="587.8857" y="34.4531">Syst&#232;me</text><text fill="#000000" font-family="sans-serif" font-size="18" lengthAdjust="spacing" textLength="52.1104" x="1072.7988" y="34.4531">Client</text><text fill="#000000" font-family="sans-serif" font-size="18" lengthAdjust="spacing" textLength="98.2793" x="1389.3711" y="34.4531">Magasinier</text><text fill="#000000" font-family="sans-serif" font-size="18" lengthAdjust="spacing" textLength="176.3525" x="1701.8677" y="34.4531">Service de livraison</text><?plantuml-src fLMxSjim4Epv5TTPAbIabJtEs8vJnOx7IkUuWC6ZT149q7XenZFwdqJVmH_B0No8f6Yd21k9nDrYxtOFi5jIOBJ5P7yjrAj7I3qKOYqigNsoNxrPL_qfS9zO9unB4blcv1BWPtcLPIGtOXrJf70Yr-kGZnPAerDFpa9AjjIANdAqvtNMpNJWELnSE66tbvTDcAaEmf5M0RmKYj0q00_n1PxkjT-XyC-Zp4WGk01IyNtnjA4qHVMygDTdL_C4LLh79Sd-9YTKRfyihtvfxnYOooGP-VRBxxQzqobbL1tw-nvHA8FPDmGPNq4it89oo4WHV9w3sw22sNTFywGkvKxOL_zX0zkcQPMHAIORqYCvwC-DBieStNE_jNL2IxO9VyCYa4qHSW5I5uLGAJRO4vw8MQipBQKliIPJ8pHSRzLE4o-SUGMMraha0LgULD0aCJdkU-bTHszOJwRDDlw9u8_LGMBPWap31qXIDI9qJzzHJ0qX4z9vqnJQHS7N-ZFyL5CE6mR_C49P9ZWM1bZdb_01H_tiCg-7g--wkUr0pz0d4lvNOqRT3fCHErvh-GbuA0mmDoDuXa7i13k5RP8AXz4nn2jaQsn71Txkc5SxnD4AWS-u6NtHGsGj_5rjCMvWux97h7xxT_BRGXeNixYbC8qE4qvcBWRNPCE4So41C0GWJrhCh0uSE3bF9r8zT1bZjPPVg23bEnMSbbksX04Zob8RFX3yj2-MgnZwLETN1tlYkP5zMvXZ_mTaky_mhebFkntgOlKeDiYYsP74gJqQLUCGAUtuD9ITlSQZF87IQjipRDHh3DLtQk-yYR4zIXD7Mh2Dval0ya4gsR-sktnMF1VOwZyixP-4xoE_c6qRX_JEHGZ7P7uy-UC8LeSFzvhqMK-wLOGOA8UvHPZTQpK_hJlSRE4tHIVa9bnobF65xNJv5m00?></g></svg>