<svg xmlns="http://www.w3.org/2000/svg" xmlns:xlink="http://www.w3.org/1999/xlink" contentStyleType="text/css" data-diagram-type="STATE" height="972px" preserveAspectRatio="none" style="width:722px;height:972px;background:#FFFFFF;" version="1.1" viewBox="0 0 722 972" width="722px" zoomAndPan="magnify"><?plantuml 1.2026.3beta6?><defs><filter height="300%" id="fvz2qkqcsexec" width="300%" x="-1" y="-1"><feGaussianBlur result="blurOut" stdDeviation="2"/><feColorMatrix in="blurOut" result="blurOut2" type="matrix" values="0 0 0 0 0 0 0 0 0 0 0 0 0 0 0 0 0 0 .4 0"/><feOffset dx="4" dy="4" in="blurOut2" result="blurOut3"/><feBlend in="SourceGraphic" in2="blurOut3" mode="normal"/></filter></defs><g><g class="entity" data-qualified-name="choice" id="ent0002"><polygon fill="#FEFECE" filter="url(#fvz2qkqcsexec)" points="163,344.49,175,356.49,163,368.49,151,356.49,163,344.49" style="stroke:#A80036;stroke-width:1.5;"/></g><g class="entity" data-qualified-name="nouv" id="ent0003"><rect fill="#FEFECE" filter="url(#fvz2qkqcsexec)" height="68.8906" rx="12.5" ry="12.5" style="stroke:#A80036;stroke-width:1;" width="303.1514" x="189.42" y="7"/><line style="stroke:#A80036;stroke-width:1;" x1="189.42" x2="492.5714" y1="33.2969" y2="33.2969"/><text fill="#000000" font-family="sans-serif" font-size="14" lengthAdjust="spacing" textLength="62.2617" x="309.8648" y="24.9951">Nouveau</text><text fill="#000000" font-family="sans-serif" font-size="14" lengthAdjust="spacing" textLength="229.9199" x="194.42" y="51.292">entry/completer les informations</text><text fill="#000000" font-family="sans-serif" font-size="14" lengthAdjust="spacing" textLength="283.1514" x="194.42" y="67.5889">exit/assigner la carte &#224; un compte client</text></g><g class="entity" data-qualified-name="asso" id="ent0004"><rect fill="#FEFECE" filter="url(#fvz2qkqcsexec)" height="52.5938" rx="12.5" ry="12.5" style="stroke:#A80036;stroke-width:1;" width="255.8877" x="213.06" y="152.89"/><line style="stroke:#A80036;stroke-width:1;" x1="213.06" x2="468.9477" y1="179.1869" y2="179.1869"/><text fill="#000000" font-family="sans-serif" font-size="14" lengthAdjust="spacing" textLength="52.9307" x="314.5385" y="170.8851">Associ&#233;</text><text fill="#000000" font-family="sans-serif" font-size="14" lengthAdjust="spacing" textLength="235.8877" x="218.06" y="197.182">entry/associer la carte &#224; un ticket</text></g><g class="entity" data-qualified-name="ptajout" id="ent0005"><rect fill="#FEFECE" filter="url(#fvz2qkqcsexec)" height="52.5938" rx="12.5" ry="12.5" style="stroke:#A80036;stroke-width:1;" width="253.7275" x="155.14" y="669.38"/><line style="stroke:#A80036;stroke-width:1;" x1="155.14" x2="408.8675" y1="695.6769" y2="695.6769"/><text fill="#000000" font-family="sans-serif" font-size="14" lengthAdjust="spacing" textLength="83.7197" x="240.1439" y="687.3751">Point ajout&#233;</text><text fill="#000000" font-family="sans-serif" font-size="14" lengthAdjust="spacing" textLength="233.7275" x="160.14" y="713.672">entry/ajouter les points &#224; la carte</text></g><g class="entity" data-qualified-name="ptret" id="ent0006"><rect fill="#FEFECE" filter="url(#fvz2qkqcsexec)" height="68.8906" rx="12.5" ry="12.5" style="stroke:#A80036;stroke-width:1;" width="247.835" x="158.08" y="445.48"/><line style="stroke:#A80036;stroke-width:1;" x1="158.08" x2="405.915" y1="471.7769" y2="471.7769"/><text fill="#000000" font-family="sans-serif" font-size="14" lengthAdjust="spacing" textLength="77.8271" x="243.0839" y="463.4751">Point retir&#233;</text><text fill="#000000" font-family="sans-serif" font-size="14" lengthAdjust="spacing" textLength="227.835" x="163.08" y="489.772">entry/retirer les points &#224; la carte</text><text fill="#000000" font-family="sans-serif" font-size="14" lengthAdjust="spacing" textLength="189.7178" x="163.08" y="506.0689">exit/appliquer  la r&#233;duction</text></g><g class="entity" data-qualified-name="clot" id="ent0007"><rect fill="#FEFECE" filter="url(#fvz2qkqcsexec)" height="68.8906" rx="12.5" ry="12.5" style="stroke:#A80036;stroke-width:1;" width="179.9268" x="192.04" y="798.97"/><line style="stroke:#A80036;stroke-width:1;" x1="192.04" x2="371.9668" y1="825.2669" y2="825.2669"/><text fill="#000000" font-family="sans-serif" font-size="14" lengthAdjust="spacing" textLength="50.9619" x="256.5224" y="816.9651">Cl&#244;tur&#233;</text><text fill="#000000" font-family="sans-serif" font-size="14" lengthAdjust="spacing" textLength="153.877" x="197.04" y="843.262">entry/cl&#244;turer la carte</text><text fill="#000000" font-family="sans-serif" font-size="14" lengthAdjust="spacing" textLength="159.9268" x="197.04" y="859.5589">exit/cl&#244;turer le compte</text></g><g class="start_entity" data-qualified-name=".start." data-source-line="22" id="ent0002"><ellipse cx="16" cy="41.45" fill="#000000" filter="url(#fvz2qkqcsexec)" rx="10" ry="10" style="stroke:#000000;stroke-width:1;"/></g><g class="end_entity" data-qualified-name=".end." data-source-line="32" id="ent0011"><ellipse cx="282" cy="939.86" fill="none" filter="url(#fvz2qkqcsexec)" rx="11" ry="11" style="stroke:#000000;stroke-width:1;"/><ellipse cx="282" cy="939.86" fill="#000000" rx="6" ry="6" style="stroke:#000000;stroke-width:1;"/></g><!--link *start* to nouv--><g class="link" data-entity-1="ent0002" data-entity-2="ent0003" data-link-type="dependency" data-source-line="22" id="lnk3"><path d="M26.45,41.45 C52.25,41.45 115.8,41.45 182.96,41.45" fill="none" id="*start*-to-nouv" style="stroke:#A80036;stroke-width:1;"/><polygon fill="#A80036" points="188.96,41.45,179.96,37.45,183.96,41.45,179.96,45.45,188.96,41.45" style="stroke:#A80036;stroke-width:1;"/><text fill="#000000" font-family="sans-serif" font-size="13" lengthAdjust="spacing" textLength="127.1372" x="44.21" y="34.5169">cr&#233;ation de la carte</text></g><!--link nouv to asso--><g class="link" data-entity-1="ent0003" data-entity-2="ent0004" data-link-type="dependency" data-source-line="23" id="lnk4"><path d="M341,76.35 C341,100.06 341,125.23 341,146.81" fill="none" id="nouv-to-asso" style="stroke:#A80036;stroke-width:1;"/><polygon fill="#A80036" points="341,152.81,345,143.81,341,147.81,337,143.81,341,152.81" style="stroke:#A80036;stroke-width:1;"/><text fill="#000000" font-family="sans-serif" font-size="13" lengthAdjust="spacing" textLength="126.4072" x="342" y="118.9569">cr&#233;ation d'un ticket</text></g><!--link asso to choice--><g class="link" data-entity-1="ent0004" data-entity-2="ent0002" data-link-type="dependency" data-source-line="25" id="lnk5"><path d="M293.99,205.94 C268.84,221.27 238.51,242.41 216,266.49 C191.93,292.23 176.0478,325.2199 168.7978,341.8499" fill="none" id="asso-to-choice" style="stroke:#A80036;stroke-width:1;"/><polygon fill="#A80036" points="166.4,347.35,173.6634,340.6985,168.3982,342.7666,166.33,337.5014,166.4,347.35" style="stroke:#A80036;stroke-width:1;"/><text fill="#000000" font-family="sans-serif" font-size="13" lengthAdjust="spacing" textLength="275.2217" x="217" y="279.5569">demande au client si utilisation des points</text></g><!--link choice to ptret--><g class="link" data-entity-1="ent0002" data-entity-2="ent0006" data-link-type="dependency" data-source-line="26" id="lnk6"><path d="M159.87,365.68 C155.89,377.6 150.58,399.97 160,415.48 C167.19,427.32 172.4541,433.6242 183.9141,441.5942" fill="none" id="choice-to-ptret" style="stroke:#A80036;stroke-width:1;"/><polygon fill="#A80036" points="188.84,445.02,183.735,436.5975,184.7351,442.1652,179.1674,443.1653,188.84,445.02" style="stroke:#A80036;stroke-width:1;"/><text fill="#000000" font-family="sans-serif" font-size="13" lengthAdjust="spacing" textLength="314.2534" x="161" y="411.5469">[nombre de points suffisant et utilisation points]</text></g><!--link choice to ptajout--><g class="link" data-entity-1="ent0002" data-entity-2="ent0005" data-link-type="dependency" data-source-line="27" id="lnk7"><path d="M159.35,365.16 C155.65,373.26 150.06,386.49 147,398.48 C134.26,448.46 124.2,465.61 141,514.38 C163.01,578.24 213.5728,632.697 248.0128,664.827" fill="none" id="choice-to-ptajout" style="stroke:#A80036;stroke-width:1;"/><polygon fill="#A80036" points="252.4,668.92,248.5478,659.8558,248.744,665.5092,243.0905,665.7054,252.4,668.92" style="stroke:#A80036;stroke-width:1;"/><text fill="#000000" font-family="sans-serif" font-size="13" lengthAdjust="spacing" textLength="36.5244" x="164" y="557.4469">[else]</text></g><!--link ptret to ptajout--><g class="link" data-entity-1="ent0006" data-entity-2="ent0005" data-link-type="dependency" data-source-line="28" id="lnk8"><path d="M282,514.8 C282,557.65 282,624.48 282,663.01" fill="none" id="ptret-to-ptajout" style="stroke:#A80036;stroke-width:1;"/><polygon fill="#A80036" points="282,669.01,286,660.01,282,664.01,278,660.01,282,669.01" style="stroke:#A80036;stroke-width:1;"/><text fill="#000000" font-family="sans-serif" font-size="13" lengthAdjust="spacing" textLength="174.6558" x="283" y="604.4469">validation payement ticket</text></g><!--link ptajout to asso--><g class="link" data-entity-1="ent0005" data-entity-2="ent0004" data-link-type="dependency" data-source-line="30" id="lnk9"><path d="M400.85,668.92 C459.98,652.55 519,629.14 519,600.88 C519,273.99 519,273.99 519,273.99 C519,241.15 500.4564,222.2755 470.0864,208.3855" fill="none" id="ptajout-to-asso" style="stroke:#A80036;stroke-width:1;"/><polygon fill="#A80036" points="464.63,205.89,471.1509,213.2709,469.177,207.9696,474.4783,205.9957,464.63,205.89" style="stroke:#A80036;stroke-width:1;"/><text fill="#000000" font-family="sans-serif" font-size="13" lengthAdjust="spacing" textLength="186.8687" x="520" y="411.5469">cr&#233;ation d'un nouveau ticket</text></g><!--link ptajout to clot--><g class="link" data-entity-1="ent0005" data-entity-2="ent0007" data-link-type="dependency" data-source-line="31" id="lnk10"><path d="M282,722.2 C282,743.79 282,768.87 282,792.53" fill="none" id="ptajout-to-clot" style="stroke:#A80036;stroke-width:1;"/><polygon fill="#A80036" points="282,798.53,286,789.53,282,793.53,278,789.53,282,798.53" style="stroke:#A80036;stroke-width:1;"/><text fill="#000000" font-family="sans-serif" font-size="13" lengthAdjust="spacing" textLength="237.9609" x="283" y="765.0369">demande de suppression du compte</text></g><!--link clot to *end*--><g class="link" data-entity-1="ent0007" data-entity-2="ent0011" data-link-type="dependency" data-source-line="32" id="lnk12"><path d="M282,868.33 C282,889.29 282,908.77 282,922.64" fill="none" id="clot-to-*end*" style="stroke:#A80036;stroke-width:1;"/><polygon fill="#A80036" points="282,928.64,286,919.64,282,923.64,278,919.64,282,928.64" style="stroke:#A80036;stroke-width:1;"/></g><?plantuml-src TPDDJiCm48NtFiMe6oIaY7s5AY7sY3tgmZZJTi2nWtygk0rRzjoW5sF6iTC0gbIviTwRR-mtINmb1y57L37fX60EdWp2xUtqiDceAgmUV3wYpYlG4Hm_ArdMW2w5ZnlZXz5YmW0M8v3R-J3eHDx5PdkdTADZfBqJamQZ0rDFdv0TIBNqjiIqkU5TZDxGwQjqv5AlP6aTTL7_inAPLpn37Zsv1Fh5vrH9OoexLVzddcpg-KSfYW9iy3-yW8d2pEETAcjZ5VaogtbB9EDewIspMNHczjb8RdF3UtlwJharCzOd9SiS_2GlScYoq1SgrfILUhhUGXTeVqZTfamIreRvPLpGunbKj8vDalKlqzKYw29sOgllphh7GJi6wLn72f4W9x8KMvEMYwerKbvYWVMJyyDpG3b9pIxctOvBcSFwaZFfsz-GCaZ6e8sudRAUZZTBHssfhmJzWOESiDsccIvUsqsVGIjO-YNuy-tv5_Cu1kINNefp6q2nYPy7yGC0?></g></svg>