<svg xmlns="http://www.w3.org/2000/svg" xmlns:xlink="http://www.w3.org/1999/xlink" contentStyleType="text/css" data-diagram-type="STATE" height="704px" preserveAspectRatio="none" style="width:1277px;height:704px;background:#FFFFFF;" version="1.1" viewBox="0 0 1277 704" width="1277px" zoomAndPan="magnify"><?plantuml 1.2026.3beta6?><defs><filter height="300%" id="f1lgjbsvi2aj2o" width="300%" x="-1" y="-1"><feGaussianBlur result="blurOut" stdDeviation="2"/><feColorMatrix in="blurOut" result="blurOut2" type="matrix" values="0 0 0 0 0 0 0 0 0 0 0 0 0 0 0 0 0 0 .4 0"/><feOffset dx="4" dy="4" in="blurOut2" result="blurOut3"/><feBlend in="SourceGraphic" in2="blurOut3" mode="normal"/></filter></defs><g><g class="entity" data-qualified-name="carteNew" id="ent0002"><rect fill="#FEFECE" filter="url(#f1lgjbsvi2aj2o)" height="50" rx="12.5" ry="12.5" style="stroke:#A80036;stroke-width:1;" width="82.2617" x="328.87" y="16.5659"/><line style="stroke:#A80036;stroke-width:1;" x1="328.87" x2="411.1317" y1="42.8628" y2="42.8628"/><text fill="#000000" font-family="sans-serif" font-size="14" lengthAdjust="spacing" textLength="62.2617" x="338.87" y="34.561">Nouveau</text></g><g class="entity" data-qualified-name="carteNotFull" id="ent0003"><rect fill="#FEFECE" filter="url(#f1lgjbsvi2aj2o)" height="50" rx="12.5" ry="12.5" style="stroke:#A80036;stroke-width:1;" width="89.7813" x="649.11" y="16.5659"/><line style="stroke:#A80036;stroke-width:1;" x1="649.11" x2="738.8913" y1="42.8628" y2="42.8628"/><text fill="#000000" font-family="sans-serif" font-size="14" lengthAdjust="spacing" textLength="69.7813" x="659.11" y="34.561">Incomplet</text></g><g class="entity" data-qualified-name="carteFull" id="ent0004"><rect fill="#FEFECE" filter="url(#f1lgjbsvi2aj2o)" height="50" rx="12.5" ry="12.5" style="stroke:#A80036;stroke-width:1;" width="78.8574" x="1025.57" y="16.5659"/><line style="stroke:#A80036;stroke-width:1;" x1="1025.57" x2="1104.4274" y1="42.8628" y2="42.8628"/><text fill="#000000" font-family="sans-serif" font-size="14" lengthAdjust="spacing" textLength="58.8574" x="1035.57" y="34.561">Complet</text></g><g class="entity" data-qualified-name="carteDates" id="ent0005"><rect fill="#FEFECE" filter="url(#f1lgjbsvi2aj2o)" height="50" rx="12.5" ry="12.5" style="stroke:#A80036;stroke-width:1;" width="112.8047" x="962.6" y="144.8559"/><line style="stroke:#A80036;stroke-width:1;" x1="962.6" x2="1075.4047" y1="171.1528" y2="171.1528"/><text fill="#000000" font-family="sans-serif" font-size="14" lengthAdjust="spacing" textLength="92.8047" x="972.6" y="162.851">Date d&#233;cal&#233;e</text></g><g class="entity" data-qualified-name="carteCancel" id="ent0006"><rect fill="#FEFECE" filter="url(#f1lgjbsvi2aj2o)" height="50" rx="12.5" ry="12.5" style="stroke:#A80036;stroke-width:1;" width="68.6992" x="479.65" y="632.1559"/><line style="stroke:#A80036;stroke-width:1;" x1="479.65" x2="548.3492" y1="658.4528" y2="658.4528"/><text fill="#000000" font-family="sans-serif" font-size="14" lengthAdjust="spacing" textLength="48.6992" x="489.65" y="650.151">Annul&#233;</text></g><g class="entity" data-qualified-name="carteQuant" id="ent0007"><rect fill="#FEFECE" filter="url(#f1lgjbsvi2aj2o)" height="52.5938" rx="12.5" ry="12.5" style="stroke:#A80036;stroke-width:1;" width="209.1846" x="65.41" y="143.5659"/><line style="stroke:#A80036;stroke-width:1;" x1="65.41" x2="274.5946" y1="169.8628" y2="169.8628"/><text fill="#000000" font-family="sans-serif" font-size="14" lengthAdjust="spacing" textLength="182.335" x="78.8348" y="161.561">Quantit&#233;s r&#233;elles ajust&#233;es</text><text fill="#000000" font-family="sans-serif" font-size="14" lengthAdjust="spacing" textLength="189.1846" x="70.41" y="187.8579">exit/ ajouter une remarque</text></g><g class="entity" data-qualified-name="carteDel" id="ent0008"><rect fill="#FEFECE" filter="url(#f1lgjbsvi2aj2o)" height="50" rx="12.5" ry="12.5" style="stroke:#A80036;stroke-width:1;" width="132.8613" x="556.57" y="404.1559"/><line style="stroke:#A80036;stroke-width:1;" x1="556.57" x2="689.4313" y1="430.4528" y2="430.4528"/><text fill="#000000" font-family="sans-serif" font-size="14" lengthAdjust="spacing" textLength="112.8613" x="566.57" y="422.151">Plats infaisables</text></g><g class="entity" data-qualified-name="carteReplace" id="ent0009"><rect fill="#FEFECE" filter="url(#f1lgjbsvi2aj2o)" height="50" rx="12.5" ry="12.5" style="stroke:#A80036;stroke-width:1;" width="126.2578" x="937.87" y="404.1559"/><line style="stroke:#A80036;stroke-width:1;" x1="937.87" x2="1064.1278" y1="430.4528" y2="430.4528"/><text fill="#000000" font-family="sans-serif" font-size="14" lengthAdjust="spacing" textLength="106.2578" x="947.87" y="422.151">Remplacement</text></g><g class="entity" data-qualified-name="cAdaptation" id="ent0010"><polygon fill="#FEFECE" filter="url(#f1lgjbsvi2aj2o)" points="557,157.8559,569,169.8559,557,181.8559,545,169.8559,557,157.8559" style="stroke:#A80036;stroke-width:1.5;"/></g><g class="entity" data-qualified-name="cCancel" id="ent0011"><polygon fill="#FEFECE" filter="url(#f1lgjbsvi2aj2o)" points="623,531.1559,635,543.1559,623,555.1559,611,543.1559,623,531.1559" style="stroke:#A80036;stroke-width:1.5;"/></g><g class="entity" data-qualified-name="c3" id="ent0012"><polygon fill="#FEFECE" filter="url(#f1lgjbsvi2aj2o)" points="623,288.1559,635,300.1559,623,312.1559,611,300.1559,623,288.1559" style="stroke:#A80036;stroke-width:1.5;"/></g><g class="start_entity" data-qualified-name=".start." data-source-line="16" id="ent0002"><ellipse cx="282" cy="41.5659" fill="#000000" filter="url(#f1lgjbsvi2aj2o)" rx="10" ry="10" style="stroke:#000000;stroke-width:1;"/></g><g class="end_entity" data-qualified-name=".end." data-source-line="34" id="ent0019"><ellipse cx="17" cy="169.8559" fill="none" filter="url(#f1lgjbsvi2aj2o)" rx="11" ry="11" style="stroke:#000000;stroke-width:1;"/><ellipse cx="17" cy="169.8559" fill="#000000" rx="6" ry="6" style="stroke:#000000;stroke-width:1;"/></g><!--link *start* to carteNew--><g class="link" data-entity-1="ent0002" data-entity-2="ent0002" data-link-type="dependency" data-source-line="16" id="lnk3"><path d="M292.31,41.5659 C304.35,41.5659 310.39,41.5659 322.43,41.5659" fill="none" id="*start*-to-carteNew" style="stroke:#A80036;stroke-width:1;"/><polygon fill="#A80036" points="328.43,41.5659,319.43,37.5659,323.43,41.5659,319.43,45.5659,328.43,41.5659" style="stroke:#A80036;stroke-width:1;"/></g><!--link carteNew to carteNotFull--><g class="link" data-entity-1="ent0002" data-entity-2="ent0003" data-link-type="dependency" data-source-line="17" id="lnk4"><path d="M411.36,41.5659 C472.27,41.5659 579.65,41.5659 642.72,41.5659" fill="none" id="carteNew-to-carteNotFull" style="stroke:#A80036;stroke-width:1;"/><polygon fill="#A80036" points="648.72,41.5659,639.72,37.5659,643.72,41.5659,639.72,45.5659,648.72,41.5659" style="stroke:#A80036;stroke-width:1;"/><text fill="#000000" font-family="sans-serif" font-size="13" lengthAdjust="spacing" textLength="172.2944" x="442.1854" y="19.6328">Choix des plats &#224; pr&#233;parer</text><text fill="#000000" font-family="sans-serif" font-size="13" lengthAdjust="spacing" textLength="195.4253" x="434.7523" y="34.7656">plusieurs semaines &#224; l'avance</text></g><!--link carteNotFull to carteFull--><g class="link" data-entity-1="ent0003" data-entity-2="ent0004" data-link-type="dependency" data-source-line="18" id="lnk5"><path d="M739.12,41.5659 C812.31,41.5659 949.71,41.5659 1019.27,41.5659" fill="none" id="carteNotFull-to-carteFull" style="stroke:#A80036;stroke-width:1;"/><polygon fill="#A80036" points="1025.27,41.5659,1016.27,37.5659,1020.27,41.5659,1016.27,45.5659,1025.27,41.5659" style="stroke:#A80036;stroke-width:1;"/><text fill="#000000" font-family="sans-serif" font-size="13" lengthAdjust="spacing" textLength="248.3647" x="758.23" y="34.6328">Compl&#233;tion de l'ordre de pr&#233;parations</text></g><!--link carteFull to cAdaptation--><g class="link" data-entity-1="ent0004" data-entity-2="ent0010" data-link-type="dependency" data-source-line="20" id="lnk6"><path d="M1025.22,52.3959 C981.51,63.2059 909.25,81.0959 847,96.5659 C736.47,124.0259 608.101,156.0915 572.081,165.0915" fill="none" id="carteFull-to-cAdaptation" style="stroke:#A80036;stroke-width:1;"/><polygon fill="#A80036" points="566.26,166.5459,575.9612,168.2449,571.1109,165.3339,574.0219,160.4835,566.26,166.5459" style="stroke:#A80036;stroke-width:1;"/><text fill="#000000" font-family="sans-serif" font-size="13" lengthAdjust="spacing" textLength="133.3071" x="848" y="109.6328">V&#233;rification du stock</text></g><!--link cAdaptation to carteDates--><g class="link" data-entity-1="ent0010" data-entity-2="ent0005" data-link-type="dependency" data-source-line="21" id="lnk7"><path d="M569.36,169.8559 C625.03,169.8559 848.55,169.8559 956.45,169.8559" fill="none" id="cAdaptation-to-carteDates" style="stroke:#A80036;stroke-width:1;"/><polygon fill="#A80036" points="962.45,169.8559,953.45,165.8559,957.45,169.8559,953.45,173.8559,962.45,169.8559" style="stroke:#A80036;stroke-width:1;"/><text fill="#000000" font-family="sans-serif" font-size="13" lengthAdjust="spacing" textLength="355.6973" x="588.3" y="162.9228">[Stock insuffisant] / D&#233;calage de la date de production</text></g><!--reverse link carteFull to carteDates--><g class="link" data-entity-1="ent0004" data-entity-2="ent0005" data-link-type="dependency" data-source-line="22" id="lnk9"><path d="M1020.2448,67.1995 C1008.3248,75.6995 1001.57,83.2059 995,96.5659 C987.47,111.8759 993.63,130.1159 1001.58,144.4359" fill="none" id="carteFull-backto-carteDates" style="stroke:#A80036;stroke-width:1;"/><polygon fill="#A80036" points="1025.13,63.7159,1015.4799,65.6845,1021.059,66.6189,1020.1246,72.198,1025.13,63.7159" style="stroke:#A80036;stroke-width:1;"/><text fill="#000000" font-family="sans-serif" font-size="13" lengthAdjust="spacing" textLength="106.1392" x="996" y="109.6328">Arriv&#233;e du stock</text></g><!--link cAdaptation to c3--><g class="link" data-entity-1="ent0010" data-entity-2="ent0012" data-link-type="dependency" data-source-line="24" id="lnk10"><path d="M560.93,178.4959 C572.7,201.3759 604.7955,263.7704 616.4255,286.3804" fill="none" id="cAdaptation-to-c3" style="stroke:#A80036;stroke-width:1;"/><polygon fill="#A80036" points="619.17,291.7159,618.6103,281.883,616.8829,287.2696,611.4963,285.5423,619.17,291.7159" style="stroke:#A80036;stroke-width:1;"/><text fill="#000000" font-family="sans-serif" font-size="13" lengthAdjust="spacing" textLength="268.1758" x="602" y="239.2228">[Stock insuffisant AND date inajustable] /</text><text fill="#000000" font-family="sans-serif" font-size="13" lengthAdjust="spacing" textLength="195.6602" x="640.324" y="254.3556">Possibilit&#233; de remplacement ?</text></g><!--link c3 to carteDel--><g class="link" data-entity-1="ent0012" data-entity-2="ent0008" data-link-type="dependency" data-source-line="25" id="lnk11"><path d="M623,312.4259 C623,332.8259 623,370.2859 623,397.7659" fill="none" id="c3-to-carteDel" style="stroke:#A80036;stroke-width:1;"/><polygon fill="#A80036" points="623,403.7659,627,394.7659,623,398.7659,619,394.7659,623,403.7659" style="stroke:#A80036;stroke-width:1;"/><text fill="#000000" font-family="sans-serif" font-size="13" lengthAdjust="spacing" textLength="155.5493" x="624" y="355.2228">[Non] / Suppression des</text><text fill="#000000" font-family="sans-serif" font-size="13" lengthAdjust="spacing" textLength="105.2124" x="651.2346" y="370.3556">plats infaisables</text></g><!--link c3 to carteReplace--><g class="link" data-entity-1="ent0012" data-entity-2="ent0009" data-link-type="dependency" data-source-line="26" id="lnk12"><path d="M632.73,302.9559 C658.97,307.9059 733.23,322.7259 793,342.1559 C847.07,359.7359 901.3951,382.6611 942.9451,401.2911" fill="none" id="c3-to-carteReplace" style="stroke:#A80036;stroke-width:1;"/><polygon fill="#A80036" points="948.42,403.7459,941.8442,396.4138,943.8576,401.7003,938.5712,403.7136,948.42,403.7459" style="stroke:#A80036;stroke-width:1;"/><text fill="#000000" font-family="sans-serif" font-size="13" lengthAdjust="spacing" textLength="170.6948" x="875" y="355.2228">[Oui] / Remplacement des</text><text fill="#000000" font-family="sans-serif" font-size="13" lengthAdjust="spacing" textLength="105.2124" x="909.8074" y="370.3556">plats infaisables</text></g><!--link carteDel to cCancel--><g class="link" data-entity-1="ent0008" data-entity-2="ent0011" data-link-type="dependency" data-source-line="28" id="lnk13"><path d="M623,454.4559 C623,478.0059 623,506.7059 623,524.5759" fill="none" id="carteDel-to-cCancel" style="stroke:#A80036;stroke-width:1;"/><polygon fill="#A80036" points="623,530.5759,627,521.5759,623,525.5759,619,521.5759,623,530.5759" style="stroke:#A80036;stroke-width:1;"/><text fill="#000000" font-family="sans-serif" font-size="13" lengthAdjust="spacing" textLength="124.3442" x="624" y="497.2228">L'ordre est-il vide ?</text></g><!--reverse link carteFull to carteReplace--><g class="link" data-entity-1="ent0004" data-entity-2="ent0009" data-link-type="dependency" data-source-line="29" id="lnk15"><path d="M1094.018,71.6195 C1101.198,80.2095 1104.24,85.8159 1108,96.5659 C1110.49,103.6959 1108.63,106.0359 1108,113.5659 C1103.04,172.5659 1064,365.1659 1059,374.1559 C1052.85,385.2159 1043.63,395.3059 1034.34,403.6859" fill="none" id="carteFull-backto-carteReplace" style="stroke:#A80036;stroke-width:1;"/><polygon fill="#A80036" points="1090.17,67.0159,1092.8729,76.4866,1093.3766,70.8523,1099.011,71.356,1090.17,67.0159" style="stroke:#A80036;stroke-width:1;"/></g><!--link cCancel to carteCancel--><g class="link" data-entity-1="ent0011" data-entity-2="ent0006" data-link-type="dependency" data-source-line="31" id="lnk16"><path d="M617.44,549.8659 C602.95,564.7559 567.5346,601.1461 541.7446,627.6461" fill="none" id="cCancel-to-carteCancel" style="stroke:#A80036;stroke-width:1;"/><polygon fill="#A80036" points="537.56,631.9459,546.7035,628.2859,541.0472,628.3627,540.9704,622.7064,537.56,631.9459" style="stroke:#A80036;stroke-width:1;"/><text fill="#000000" font-family="sans-serif" font-size="13" lengthAdjust="spacing" textLength="181.5557" x="582" y="598.2228">[Oui] / Annulation de l'ordre</text></g><!--reverse link carteFull to cCancel--><g class="link" data-entity-1="ent0004" data-entity-2="ent0011" data-link-type="dependency" data-source-line="32" id="lnk18"><path d="M1110.3479,56.7488 C1157.4479,73.8988 1224,108.0459 1224,168.8559 C1224,168.8559 1224,168.8559 1224,430.1559 C1224,492.7059 714.32,535.0359 633.69,541.3359" fill="none" id="carteFull-backto-cCancel" style="stroke:#A80036;stroke-width:1;"/><polygon fill="#A80036" points="1104.71,54.6959,1111.7983,61.5338,1109.4082,56.4066,1114.5354,54.0166,1104.71,54.6959" style="stroke:#A80036;stroke-width:1;"/><text fill="#000000" font-family="sans-serif" font-size="13" lengthAdjust="spacing" textLength="36.061" x="1225" y="304.7228">[Non]</text></g><!--link carteCancel to *end*--><g class="link" data-entity-1="ent0006" data-entity-2="ent0019" data-link-type="dependency" data-source-line="34" id="lnk20"><path d="M503.51,631.7459 C494.86,609.3859 484,575.1559 484,544.1559 C484,299.1559 484,299.1559 484,299.1559 C484,99.6159 225.27,285.8159 47,196.1559 C38.24,191.7459 34.0789,188.5423 28.4089,182.8623" fill="none" id="carteCancel-to-*end*" style="stroke:#A80036;stroke-width:1;"/><polygon fill="#A80036" points="24.17,178.6159,27.6974,187.8114,27.7024,182.1546,33.3593,182.1595,24.17,178.6159" style="stroke:#A80036;stroke-width:1;"/></g><!--reverse link carteQuant to cAdaptation--><g class="link" data-entity-1="ent0007" data-entity-2="ent0010" data-link-type="dependency" data-source-line="36" id="lnk22"><path d="M280.98,169.8559 C376.79,169.8559 503.49,169.8559 544.45,169.8559" fill="none" id="carteQuant-backto-cAdaptation" style="stroke:#A80036;stroke-width:1;"/><polygon fill="#A80036" points="274.98,169.8559,283.98,173.8559,279.98,169.8559,283.98,165.8559,274.98,169.8559" style="stroke:#A80036;stroke-width:1;"/><text fill="#000000" font-family="sans-serif" font-size="13" lengthAdjust="spacing" textLength="114.6196" x="350.8369" y="147.9228">[Stock suffisant] /</text><text fill="#000000" font-family="sans-serif" font-size="13" lengthAdjust="spacing" textLength="232.8257" x="293.8" y="163.0556">Ajustement des quantit&#233;s produites</text></g><!--reverse link *end* to carteQuant--><g class="link" data-entity-1="ent0019" data-entity-2="ent0007" data-link-type="dependency" data-source-line="38" id="lnk24"><path d="M34.36,169.8559 C46.62,169.8559 52.89,169.8559 65.15,169.8559" fill="none" id="*end*-backto-carteQuant" style="stroke:#A80036;stroke-width:1;"/><polygon fill="#A80036" points="28.36,169.8559,37.36,173.8559,33.36,169.8559,37.36,165.8559,28.36,169.8559" style="stroke:#A80036;stroke-width:1;"/></g><?plantuml-src TLHDQnin4BthLmov50ecXznCS30sWK9nqmHwiNDGjEDMZInjD9ARdzEhVyV-iOxarMhNf1UpdeytxysyNNhL5hmZ58A230XN6nUFAECLI08bVS0D_YcvBrQvGsimZB8kt4TZIiNgCZzEhjDlqvsKDDq9QqsAKobQMXivNRChQHKE6D-Zj467xaJW6SGO992_8t44gJRbCfW3lkjmpGKk1lGGBOB7W_Hl4GlWWv61GDkzr2HVp1XaNSS-8kkI2WzeH-8UCGVBxjIoaIq_QMVXzbRzSbhXOb6IPnqV96x6CR7z_0opHLrzUQZ1yyPPt8gRtg7X3RHPHFSNMbvAAprhtLcEHj8OFG6nQ6qnbvXFyfYeY0bQGI_GwOxTAKjfa7kSRpocntv2Lab2rAPPWXXjO0u_kfFNUwtE_vi859nw5UEYCZPRW5ksJwc4pq5nl-U3sF0Crx3Edf4_Cm4ZeSb6IbnS4rK24YEKMModOfRUwoFxerAOSaWaRZuS3ilD-ZnDs-oov934Q6SV795-qIPvCN7n8uV0dM30sI0E4uljnjdK-XJRrYCtvzKIGxMN5fnqzoPB2D-YJWXZC_uNGWoZCrBllZbyxK-956RQm54pzpincJHT82FrpGEb0QmmoY-jl71BxJEu3zEJv6Nq74lL0jZx5wT9dMLgUQVxCqqSihFBT9wwahVwdSWkqM7OoHcdGFFCVm00?></g></svg>